<svg width="900" height="1200" viewBox="0 0 900 1200" fill="none" xmlns="http://www.w3.org/2000/svg">
  <rect width="900" height="1200" rx="48" fill="#FFF7EE"/>
  <rect x="36" y="36" width="828" height="1128" rx="36" fill="url(#bg)"/>
  <circle cx="720" cy="178" r="126" fill="#FFE2C2"/>
  <circle cx="196" cy="1060" r="150" fill="#F6C89C" fill-opacity="0.45"/>
  <rect x="94" y="108" width="212" height="46" rx="23" fill="#FFFFFF" fill-opacity="0.86"/>
  <text x="126" y="138" fill="#B66D35" font-family="Arial, sans-serif" font-size="22" font-weight="700" letter-spacing="2">MARKETPLACE AD</text>
  <text x="94" y="258" fill="#1E2838" font-family="Arial, sans-serif" font-size="82" font-weight="700">High CTR</text>
  <text x="94" y="336" fill="#1E2838" font-family="Arial, sans-serif" font-size="82" font-weight="700">Creative</text>
  <text x="94" y="402" fill="#5E6C80" font-family="Arial, sans-serif" font-size="30">Product-first layout with premium highlights</text>
  <rect x="94" y="510" width="712" height="422" rx="34" fill="#FFFFFF" fill-opacity="0.8"/>
  <rect x="144" y="564" width="304" height="304" rx="36" fill="#F4D0AA"/>
  <rect x="202" y="612" width="188" height="208" rx="28" fill="#FFF8F1"/>
  <rect x="230" y="636" width="132" height="128" rx="22" fill="#E79C59"/>
  <rect x="490" y="586" width="256" height="28" rx="14" fill="#E9B27A"/>
  <rect x="490" y="634" width="212" height="20" rx="10" fill="#CBD4E0"/>
  <rect x="490" y="674" width="178" height="20" rx="10" fill="#CBD4E0"/>
  <rect x="490" y="736" width="168" height="66" rx="22" fill="#1F2A39"/>
  <text x="530" y="778" fill="#FFFFFF" font-family="Arial, sans-serif" font-size="28" font-weight="700">Shop Now</text>
  <rect x="94" y="970" width="240" height="108" rx="28" fill="#1F2A39"/>
  <text x="132" y="1028" fill="#FFFFFF" font-family="Arial, sans-serif" font-size="44" font-weight="700">+34% CTR</text>
  <text x="370" y="1034" fill="#1E2838" font-family="Arial, sans-serif" font-size="44" font-weight="700">Sharper listing</text>
  <text x="370" y="1082" fill="#5E6C80" font-family="Arial, sans-serif" font-size="26">A+ content, pricing callout, and product proof</text>
  <defs>
    <linearGradient id="bg" x1="88" y1="72" x2="760" y2="1096" gradientUnits="userSpaceOnUse">
      <stop stop-color="#FFFDF9"/>
      <stop offset="1" stop-color="#F4E2CF"/>
    </linearGradient>
  </defs>
</svg>
