<svg width="900" height="1200" viewBox="0 0 900 1200" fill="none" xmlns="http://www.w3.org/2000/svg">
  <rect width="900" height="1200" rx="48" fill="#FFF8F1"/>
  <rect x="40" y="40" width="820" height="1120" rx="36" fill="url(#bg)"/>
  <circle cx="198" cy="204" r="120" fill="#FFDDBA"/>
  <circle cx="752" cy="998" r="138" fill="#F1C79E" fill-opacity="0.48"/>
  <rect x="102" y="112" width="168" height="44" rx="22" fill="#FFFFFF" fill-opacity="0.88"/>
  <text x="132" y="140" fill="#B66D35" font-family="Arial, sans-serif" font-size="22" font-weight="700" letter-spacing="2">UGC CREATIVE</text>
  <text x="102" y="262" fill="#1E2838" font-family="Arial, sans-serif" font-size="72" font-weight="700">People stop</text>
  <text x="102" y="334" fill="#1E2838" font-family="Arial, sans-serif" font-size="72" font-weight="700">for real hooks</text>
  <text x="102" y="390" fill="#5E6C80" font-family="Arial, sans-serif" font-size="28">Fast intro. Clear product win. Human tone.</text>
  <rect x="102" y="474" width="698" height="474" rx="36" fill="#FFFFFF" fill-opacity="0.82"/>
  <rect x="150" y="524" width="292" height="374" rx="28" fill="#F3D1AE"/>
  <circle cx="296" cy="652" r="88" fill="#FFF8F1"/>
  <rect x="220" y="738" width="152" height="104" rx="52" fill="#FFF8F1"/>
  <rect x="486" y="554" width="248" height="26" rx="13" fill="#1F2A39"/>
  <rect x="486" y="604" width="216" height="18" rx="9" fill="#CBD4E0"/>
  <rect x="486" y="642" width="190" height="18" rx="9" fill="#CBD4E0"/>
  <rect x="486" y="714" width="220" height="104" rx="30" fill="#FFF4E8"/>
  <text x="516" y="766" fill="#1F2A39" font-family="Arial, sans-serif" font-size="30" font-weight="700">“I’d actually watch this ad.”</text>
  <rect x="102" y="986" width="210" height="104" rx="28" fill="#E9A25E"/>
  <text x="144" y="1048" fill="#FFFFFF" font-family="Arial, sans-serif" font-size="42" font-weight="700">Hook 01</text>
  <text x="350" y="1030" fill="#1E2838" font-family="Arial, sans-serif" font-size="40" font-weight="700">UGC + product proof</text>
  <text x="350" y="1078" fill="#5E6C80" font-family="Arial, sans-serif" font-size="26">Built for Meta testing and quick iteration</text>
  <defs>
    <linearGradient id="bg" x1="74" y1="78" x2="770" y2="1126" gradientUnits="userSpaceOnUse">
      <stop stop-color="#FFFCF8"/>
      <stop offset="1" stop-color="#F4E0CD"/>
    </linearGradient>
  </defs>
</svg>
