<svg xmlns="http://www.w3.org/2000/svg" viewBox="0 0 64 64" role="img" aria-labelledby="favicon-title">
  <title id="favicon-title">Growth Vibe favicon</title>
  <defs>
    <linearGradient id="gv-bg" x1="10%" y1="10%" x2="90%" y2="90%">
      <stop offset="0%" stop-color="#f8c48d" />
      <stop offset="55%" stop-color="#d48642" />
      <stop offset="100%" stop-color="#8a4f2d" />
    </linearGradient>
    <radialGradient id="gv-glow" cx="30%" cy="24%" r="70%">
      <stop offset="0%" stop-color="#fff7ef" stop-opacity="0.95" />
      <stop offset="55%" stop-color="#fff7ef" stop-opacity="0.12" />
      <stop offset="100%" stop-color="#fff7ef" stop-opacity="0" />
    </radialGradient>
  </defs>
  <rect x="6" y="6" width="52" height="52" rx="18" fill="url(#gv-bg)" />
  <circle cx="32" cy="32" r="22" fill="none" stroke="rgba(255,255,255,0.32)" stroke-width="1.5" />
  <circle cx="32" cy="32" r="15" fill="none" stroke="rgba(255,255,255,0.22)" stroke-width="1.5" />
  <circle cx="24" cy="20" r="18" fill="url(#gv-glow)" />
  <path
    d="M24.6 23.8a8.8 8.8 0 1 0 1.1 12.5l2.4-2.6h-7.5v-4.7h15v1.6c0 8.2-5.9 14.1-13.8 14.1-8.5 0-15-6.4-15-14.7s6.6-14.7 15.1-14.7c4.4 0 8.2 1.5 11 4.5l-4.1 3.8c-1.2-1.2-2.7-1.8-4.2-1.8Z"
    fill="#fffaf4"
  />
  <path
    d="M37.8 18.6h5.8l4.6 10.3 4.6-10.3h5.8L50.9 45h-5.3l-7.8-26.4Z"
    fill="#fffaf4"
  />
</svg>
